<svg width="604" height="515" xmlns="http://www.w3.org/2000/svg"><g fill="none" fill-rule="evenodd"><path fill="#FFB6A9" d="M-15.931 590.77l52.959-91.928-20.797-11.98-52.96 91.928z"/><path fill="#FFB6A9" d="M37.028 498.842l52.959-91.928-20.797-11.98-52.96 91.928z"/><path fill="#FFB6A9" d="M89.987 406.914l52.959-91.928-20.797-11.98-52.96 91.928z"/><path fill="#FFB6A9" d="M142.946 314.986l52.959-91.928-20.797-11.98-52.96 91.928z"/><path fill="#FFB6A9" d="M195.905 223.059l49.29-85.56-20.797-11.98-49.29 85.56z"/><path fill="#FF7151" d="M238.465 125.14l-14.067.38-7.339 12.738 14.068-.38 6.73 12.36 7.337-12.738z"/><path fill="#9A8AC7" d="M23.945 592.581l52.45-91.02L55.6 489.575 3.15 580.6z"/><path fill="#9A8AC7" d="M76.395 501.56l52.451-91.022-20.795-11.984-52.45 91.023zm52.451-91.023l52.451-91.023-20.796-11.983-52.45 91.023zm52.451-91.023l52.45-91.022-20.796-11.983-52.45 91.022zm52.451-91.022l52.45-91.022-20.795-11.984-52.451 91.023z"/><path fill="#9A8AC7" d="M286.198 137.47l48.816-84.716-20.795-11.983-48.816 84.716z"/><path fill="#6232A6" d="M328.25 40.456l-14.03.315-7.269 12.613 14.031-.315 6.764 12.298 7.269-12.613z"/><path fill="#71BCE2" d="M66.262 590.466l53.164-92.085-20.785-12-53.164 92.084zm53.164-92.085l53.166-92.085-20.785-12-53.166 92.085zm53.166-92.085l49.481-85.704-20.785-12.001-49.48 85.705z"/><path fill="#0091CF" d="M215.365 308.212l-14.076.38-7.367 12.76 14.076-.38 6.709 12.38 7.367-12.76z"/><path fill="#FFD71C" d="M99.434 603.437l49.303-85.594-20.797-11.98-49.303 85.595z"/><path fill="#FFD71C" d="M148.737 517.843l49.302-85.594-20.798-11.98-49.301 85.595z"/><path fill="#FFD71C" d="M198.039 432.25l49.302-85.595-20.797-11.98-49.303 85.595z"/><path fill="#FFD71C" d="M247.34 346.655l49.303-85.594-20.797-11.98-49.303 85.595z"/><path fill="#FFD71C" d="M296.643 261.061l45.887-79.664-20.798-11.979-45.886 79.664z"/><path fill="#FFCE00" d="M335.546 169.477l-13.814-.059-6.832 11.86 13.815.06 6.982 11.92 6.832-11.86z"/><path fill="#FFDAD3" d="M149.016 588.79l53.648-92.924-20.785-12-53.649 92.922zm53.649-92.924l53.649-92.924-20.786-12-53.648 92.923z"/><path fill="#FFDAD3" d="M256.314 402.942l49.933-86.483-20.787-12.002-49.932 86.486z"/><path fill="#FF937D" d="M299.57 304.02l-14.11.438-7.434 12.876 14.11-.438 6.676 12.438 7.435-12.876zM186.452 594.427l51.918-90.1-20.796-11.983-51.918 90.1zm51.918-90.1l51.918-90.1-20.796-11.983-51.918 90.1z"/><path fill="#FF937D" d="M290.288 414.228l51.918-90.1-20.796-11.983-51.918 90.1zm51.918-90.1l51.918-90.1-20.796-11.983-51.918 90.1zm51.918-90.1l51.918-90.1-20.796-11.983-51.918 90.1zM446.042 143.928l48.32-83.857-20.796-11.983-48.32 83.857z"/><path fill="#FF501F" d="M487.561 47.837l-13.994.25-7.195 12.485 13.995-.25 6.8 12.233 7.195-12.485z"/><path fill="#FF7151" d="M232.521 585.81l54.51-94.412-20.786-12.001-54.509 94.413z"/><path fill="#FF7151" d="M287.03 491.398l50.732-87.871-20.785-12.001-50.732 87.87z"/><path fill="#FF501F" d="M331.147 390.985l-14.17.54-7.553 13.084 14.17-.541 6.616 12.54 7.552-13.082z"/><path fill="#FF7151" d="M262.712 604.035l49.156-85.296-20.796-11.984-49.156 85.296z"/><path fill="#FF7151" d="M311.868 518.74l49.156-85.297-20.795-11.984-49.156 85.296z"/><path fill="#FF7151" d="M361.024 433.443l49.155-85.296-20.795-11.983-49.155 85.296zm49.156-85.296l49.154-85.296-20.795-11.984-49.155 85.296zm49.155-85.296l49.156-85.295-20.795-11.985-49.157 85.296z"/><path fill="#FF7151" d="M508.49 177.556l49.156-85.296-20.795-11.984-49.155 85.296zm49.156-85.296l45.75-79.386L582.601.889l-45.75 79.387z"/><path fill="#FF501F" d="M596.405.972L582.6.889l-6.811 11.82 13.803.082 6.992 11.902 6.81-11.82z"/><path fill="#DDD7EB" d="M303.854 603.566l49.28-85.53-20.797-11.983-49.28 85.53zm49.279-85.531l49.28-85.53-20.796-11.983-49.28 85.531z"/><path fill="#DDD7EB" d="M402.413 432.505l49.28-85.53-20.796-11.983-49.28 85.531z"/><path fill="#DDD7EB" d="M451.693 346.975l49.28-85.53-20.797-11.983-49.28 85.53zm49.28-85.531l49.28-85.53-20.798-11.982-49.279 85.53z"/><path fill="#DDD7EB" d="M550.252 175.914l45.865-79.604-20.796-11.982-45.866 79.604z"/><path fill="#9A8AC7" d="M589.134 84.393l-13.813-.065-6.829 11.852 13.813.065 6.984 11.917 6.828-11.852z"/><path fill="#CFF3EB" d="M381.546 540.179l45.12-78.151-20.786-12.001-45.12 78.152zm45.121-78.152l41.994-72.736-20.785-12.002-41.995 72.738z"/><path fill="#6DDDC6" d="M461.394 377.875l-13.519-.585-6.252 10.83 13.518.584 7.268 11.415 6.252-10.829z"/><path fill="#9EE8D9" d="M393.319 590.273l53.12-92.178-20.795-11.983-53.12 92.177z"/><path fill="#9EE8D9" d="M446.439 498.095l53.12-92.178-20.795-11.983-53.12 92.178z"/><path fill="#9EE8D9" d="M499.56 405.917l53.12-92.177-20.796-11.984-53.12 92.178z"/><path fill="#9EE8D9" d="M552.68 313.74l49.438-85.79-20.794-11.984-49.44 85.79z"/><path fill="#30D2B4" d="M595.402 215.571l-14.078.395-7.36 12.772 14.078-.395 6.716 12.38 7.36-12.774z"/></g></svg>
